<svg width="512" height="512" viewBox="0 0 512 512" xmlns="http://www.w3.org/2000/svg">
  <!-- 圆角背景 -->
  <rect width="512" height="512" fill="#059669" rx="102"/>
  <!-- 内圈光晕 -->
  <circle cx="256" cy="256" r="186" fill="#10b981" opacity="0.3"/>
  <!-- 叶子主体 (taproot leaf) -->
  <g transform="translate(256,256)">
    <!-- 左叶 -->
    <path d="M-22,-154 C-102,-128 -150,-48 -138,42 C-128,112 -75,138 -22,112 C-22,112 -32,-26 -22,-154Z" fill="#ffffff" opacity="0.95"/>
    <!-- 右叶 -->
    <path d="M22,-154 C102,-128 150,-48 138,42 C128,112 75,138 22,112 C22,112 32,-26 22,-154Z" fill="#ffffff" opacity="0.95"/>
    <!-- 叶脉 - 左 -->
    <path d="M-20,-60 C-20,-60 -50,-30 -60,10" stroke="#059669" stroke-width="3" stroke-linecap="round" fill="none" opacity="0.3"/>
    <path d="M-18,-20 C-18,-20 -42,0 -50,30" stroke="#059669" stroke-width="3" stroke-linecap="round" fill="none" opacity="0.3"/>
    <!-- 叶脉 - 右 -->
    <path d="M20,-60 C20,-60 50,-30 60,10" stroke="#059669" stroke-width="3" stroke-linecap="round" fill="none" opacity="0.3"/>
    <path d="M18,-20 C18,-20 42,0 50,30" stroke="#059669" stroke-width="3" stroke-linecap="round" fill="none" opacity="0.3"/>
    <!-- 茎 -->
    <path d="M0,-54 L0,146" stroke="#ffffff" stroke-width="13" stroke-linecap="round" fill="none"/>
    <!-- 根系 (taproot) -->
    <path d="M0,146 C0,146 -38,182 -44,192" stroke="#ffffff" stroke-width="8" stroke-linecap="round" fill="none" opacity="0.7"/>
    <path d="M0,146 C0,146 32,186 38,198" stroke="#ffffff" stroke-width="8" stroke-linecap="round" fill="none" opacity="0.7"/>
    <path d="M0,146 L0,202" stroke="#ffffff" stroke-width="9" stroke-linecap="round" fill="none" opacity="0.8"/>
  </g>
</svg>
